<?xml version="1.0" encoding="utf-8"?>
<!-- Generator: Adobe Illustrator 24.1.0, SVG Export Plug-In . SVG Version: 6.00 Build 0)  -->
<svg version="1.1" id="Layer_1" xmlns="http://www.w3.org/2000/svg" xmlns:xlink="http://www.w3.org/1999/xlink" x="0px" y="0px"
	 viewBox="0 0 22 22" style="enable-background:new 0 0 22 22;" xml:space="preserve">
<path d="M15.6,4.8c1.9,1.4,3.1,3.6,3.1,6.2c0,4.3-3.4,7.7-7.7,7.7c-1.5,0-3-0.4-4.2-1.2c0.4,0.1,1,0.1,1.4,0.1c4.5,0,8.2-4,8.2-8.8
	C16.5,7.4,16.2,6.1,15.6,4.8 M12,2.3c2.1,1.3,3.4,3.7,3.4,6.5c0,4.3-3.2,7.7-7.2,7.7c-2.3,0-4.4-1.2-5.7-3.1
	c1.1,3.6,4.4,6.4,8.5,6.4c4.8,0,8.8-4,8.8-8.8C19.8,6.5,16.4,2.8,12,2.3L12,2.3z"/>
</svg>
