<svg viewBox="0 0 20 20" width='22' height="22">
	<g>
		<circle fill="#0f0" cx="10" cy="10" r="4"/>
		<path fill="#0f0" d="M10,7c1.7,0,3,1.3,3,3s-1.3,3-3,3s-3-1.3-3-3S8.3,7,10,7 M10,5c-2.8,0-5,2.2-5,5s2.2,5,5,5s5-2.2,5-5
		S12.7,5,10,5L10,5z"/>
	</g>
	<g>
		<path fill="#0f0" d="M10,4.4L10,4.4c-0.3,0-0.5-0.2-0.5-0.5v-3c0-0.3,0.2-0.5,0.5-0.5h0c0.3,0,0.5,0.2,0.5,0.5v3
		C10.5,4.2,10.3,4.4,10,4.4z"/>
		<path fill="#0f0" d="M10,0.4c-0.3,0-0.5,0.2-0.5,0.5v3c0,0.3,0.2,0.5,0.5,0.5s0.5-0.2,0.5-0.5v-3C10.5,0.7,10.3,0.4,10,0.4L10,0.4z
		"/>
	</g>
	<g>
		<path fill="#0f0" d="M10,19.4L10,19.4c-0.3,0-0.5-0.2-0.5-0.5v-3c0-0.3,0.2-0.5,0.5-0.5h0c0.3,0,0.5,0.2,0.5,0.5v3
		C10.5,19.2,10.3,19.4,10,19.4z"/>
		<path fill="#0f0" d="M10,15.4c-0.3,0-0.5,0.2-0.5,0.5v3c0,0.3,0.2,0.5,0.5,0.5s0.5-0.2,0.5-0.5v-3C10.5,15.7,10.3,15.4,10,15.4
		L10,15.4z"/>
	</g>
	<g>
		<path fill="#0f0" d="M4.5,10L4.5,10c0,0.3-0.2,0.5-0.5,0.5H1c-0.3,0-0.5-0.2-0.5-0.5v0c0-0.3,0.2-0.5,0.5-0.5h3
		C4.3,9.5,4.5,9.7,4.5,10z"/>
		<path fill="#0f0" d="M4,9.5H1c-0.3,0-0.5,0.2-0.5,0.5s0.2,0.5,0.5,0.5h3c0.3,0,0.5-0.2,0.5-0.5S4.3,9.5,4,9.5L4,9.5z"/>
	</g>
	<g>
		<path fill="#0f0" d="M19.5,10L19.5,10c0,0.3-0.2,0.5-0.5,0.5h-3c-0.3,0-0.5-0.2-0.5-0.5v0c0-0.3,0.2-0.5,0.5-0.5h3
		C19.3,9.5,19.5,9.7,19.5,10z"/>
		<path fill="#0f0" d="M19,9.5h-3c-0.3,0-0.5,0.2-0.5,0.5s0.2,0.5,0.5,0.5h3c0.3,0,0.5-0.2,0.5-0.5S19.3,9.5,19,9.5L19,9.5z"/>
	</g>
	<g>
		<path fill="#0f0" d="M6.1,6.1L6.1,6.1c-0.2,0.2-0.5,0.2-0.7,0L3.3,4c-0.2-0.2-0.2-0.5,0-0.7l0,0c0.2-0.2,0.5-0.2,0.7,0l2.1,2.1
		C6.3,5.6,6.3,5.9,6.1,6.1z"/>
		<path fill="#0f0" d="M3.6,3.1c-0.1,0-0.3,0-0.4,0.1C3.1,3.5,3.1,3.8,3.3,4l2.1,2.1c0.1,0.1,0.2,0.1,0.4,0.1s0.3,0,0.4-0.1
		c0.2-0.2,0.2-0.5,0-0.7L4,3.3C3.9,3.2,3.8,3.1,3.6,3.1L3.6,3.1z"/>
	</g>
	<g>
		<path fill="#0f0" d="M16.7,16.7L16.7,16.7c-0.2,0.2-0.5,0.2-0.7,0l-2.1-2.1c-0.2-0.2-0.2-0.5,0-0.7l0,0c0.2-0.2,0.5-0.2,0.7,0
		l2.1,2.1C16.9,16.2,16.9,16.5,16.7,16.7z"/>
		<path fill="#0f0" d="M14.2,13.7c-0.1,0-0.3,0-0.4,0.1c-0.2,0.2-0.2,0.5,0,0.7l2.1,2.1c0.1,0.1,0.2,0.1,0.4,0.1s0.3,0,0.4-0.1
		c0.2-0.2,0.2-0.5,0-0.7l-2.1-2.1C14.5,13.8,14.4,13.7,14.2,13.7L14.2,13.7z"/>
	</g>
	<g>
		<path fill="#0f0" d="M13.9,6.1L13.9,6.1c-0.2-0.2-0.2-0.5,0-0.7L16,3.3c0.2-0.2,0.5-0.2,0.7,0v0c0.2,0.2,0.2,0.5,0,0.7l-2.1,2.1
		C14.4,6.3,14.1,6.3,13.9,6.1z"/>
		<path fill="#0f0" d="M16.4,3.1c-0.1,0-0.3,0-0.4,0.1l-2.1,2.1c-0.2,0.2-0.2,0.5,0,0.7c0.1,0.1,0.2,0.1,0.4,0.1c0.1,0,0.3,0,0.4-0.1
		L16.7,4c0.2-0.2,0.2-0.5,0-0.7C16.6,3.2,16.5,3.1,16.4,3.1L16.4,3.1z"/>
	</g>
	<g>
		<path fill="#0f0" d="M3.3,16.7L3.3,16.7c-0.2-0.2-0.2-0.5,0-0.7l2.1-2.1c0.2-0.2,0.5-0.2,0.7,0l0,0c0.2,0.2,0.2,0.5,0,0.7L4,16.7
		C3.8,16.9,3.5,16.9,3.3,16.7z"/>
		<path fill="#0f0" d="M5.8,13.7c-0.1,0-0.3,0-0.4,0.1L3.3,16c-0.2,0.2-0.2,0.5,0,0.7c0.1,0.1,0.2,0.1,0.4,0.1c0.1,0,0.3,0,0.4-0.1
		l2.1-2.1c0.2-0.2,0.2-0.5,0-0.7C6,13.8,5.9,13.7,5.8,13.7L5.8,13.7z"/>
	</g>
</svg>
