<?xml version="1.0" encoding="utf-8"?>
<!-- Generator: Adobe Illustrator 24.1.0, SVG Export Plug-In . SVG Version: 6.00 Build 0)  -->
<svg version="1.1" id="Layer_1" xmlns="http://www.w3.org/2000/svg" xmlns:xlink="http://www.w3.org/1999/xlink" x="0px" y="0px"
	 viewBox="0 0 22 22" style="enable-background:new 0 0 22 22;" xml:space="preserve">
<style type="text/css">
	.st0{fill:#FFFFFF;}
</style>
<g>
	<circle class="st0" cx="11" cy="11" r="4.4"/>
	<path class="st0" d="M11,7.7c1.9,0,3.3,1.4,3.3,3.3s-1.4,3.3-3.3,3.3S7.7,12.9,7.7,11S9.1,7.7,11,7.7 M11,5.5
		c-3.1,0-5.5,2.4-5.5,5.5s2.4,5.5,5.5,5.5s5.5-2.4,5.5-5.5S14,5.5,11,5.5L11,5.5z"/>
</g>
<g>
	<path class="st0" d="M11,4.8L11,4.8c-0.3,0-0.6-0.2-0.6-0.6V1c0-0.3,0.2-0.6,0.6-0.6l0,0c0.3,0,0.6,0.2,0.6,0.6v3.3
		C11.6,4.6,11.3,4.8,11,4.8z"/>
	<path class="st0" d="M11,0.4c-0.3,0-0.6,0.2-0.6,0.5v3.3c0,0.3,0.2,0.6,0.6,0.6c0.3,0,0.6-0.2,0.6-0.6V1C11.6,0.8,11.3,0.4,11,0.4
		L11,0.4z"/>
</g>
<g>
	<path class="st0" d="M11,21.3L11,21.3c-0.3,0-0.6-0.2-0.6-0.5v-3.3c0-0.3,0.2-0.5,0.6-0.5l0,0c0.3,0,0.6,0.2,0.6,0.5v3.3
		C11.6,21.1,11.3,21.3,11,21.3z"/>
	<path class="st0" d="M11,16.9c-0.3,0-0.6,0.2-0.6,0.5v3.3c0,0.3,0.2,0.5,0.6,0.5c0.3,0,0.6-0.2,0.6-0.5v-3.3
		C11.6,17.3,11.3,16.9,11,16.9L11,16.9z"/>
</g>
<g>
	<path class="st0" d="M5,11L5,11c0,0.3-0.2,0.6-0.6,0.6H1.1c-0.3,0-0.6-0.2-0.6-0.6l0,0c0-0.3,0.2-0.6,0.6-0.6h3.3
		C4.7,10.4,5,10.7,5,11z"/>
	<path class="st0" d="M4.4,10.4H1.1c-0.3,0-0.6,0.2-0.6,0.6c0,0.3,0.2,0.6,0.6,0.6h3.3C4.7,11.6,5,11.3,5,11
		C5,10.7,4.7,10.4,4.4,10.4L4.4,10.4z"/>
</g>
<g>
	<path class="st0" d="M21.5,11L21.5,11c0,0.3-0.2,0.6-0.6,0.6h-3.3c-0.3,0-0.5-0.2-0.5-0.6l0,0c0-0.3,0.2-0.6,0.5-0.6h3.3
		C21.2,10.4,21.5,10.7,21.5,11z"/>
	<path class="st0" d="M20.9,10.4h-3.3c-0.3,0-0.5,0.2-0.5,0.6c0,0.3,0.2,0.6,0.5,0.6h3.3c0.3,0,0.6-0.2,0.6-0.6
		C21.5,10.7,21.2,10.4,20.9,10.4L20.9,10.4z"/>
</g>
<g>
	<path class="st0" d="M18.4,18.4L18.4,18.4c-0.2,0.2-0.5,0.2-0.8,0l-2.3-2.3c-0.2-0.2-0.2-0.6,0-0.8l0,0c0.2-0.2,0.6-0.2,0.8,0
		l2.3,2.3C18.6,17.8,18.6,18.1,18.4,18.4z"/>
	<path class="st0" d="M15.6,15.1c-0.1,0-0.3,0-0.4,0.1c-0.2,0.2-0.2,0.6,0,0.8l2.3,2.3c0.1,0.1,0.2,0.1,0.4,0.1c0.2,0,0.3,0,0.4-0.1
		c0.2-0.2,0.2-0.5,0-0.8l-2.3-2.3C16,15.2,15.8,15.1,15.6,15.1L15.6,15.1z"/>
</g>
<g>
	<path class="st0" d="M6.7,6.7L6.7,6.7c-0.2,0.2-0.5,0.2-0.8,0L3.5,4.3c-0.2-0.2-0.2-0.5,0-0.8l0,0c0.2-0.2,0.5-0.2,0.8,0l2.3,2.3
		C6.9,6.1,6.9,6.4,6.7,6.7z"/>
	<path class="st0" d="M3.5,3.5c-0.2,0.2-0.2,0.5,0,0.8l2.3,2.3c0.2,0.2,0.5,0.2,0.8,0s0.2-0.5,0-0.8L4.3,3.5
		C4.2,3.4,3.8,3.3,3.5,3.5L3.5,3.5z"/>
</g>
<g>
	<path class="st0" d="M18.3,18.3L18.3,18.3c-0.2,0.2-0.5,0.2-0.8,0L15.2,16c-0.2-0.2-0.2-0.5,0-0.8l0,0c0.2-0.2,0.5-0.2,0.8,0
		l2.3,2.3C18.6,17.8,18.6,18.1,18.3,18.3z"/>
	<path class="st0" d="M15.2,15.2c-0.2,0.2-0.2,0.5,0,0.8l2.3,2.3c0.2,0.2,0.5,0.2,0.8,0c0.2-0.2,0.2-0.5,0-0.8L16,15.2
		C15.8,15.1,15.4,15,15.2,15.2L15.2,15.2z"/>
</g>
<g>
	<path class="st0" d="M15.1,6.7L15.1,6.7c-0.2-0.2-0.2-0.5,0-0.8l2.3-2.3c0.2-0.2,0.5-0.2,0.8,0l0,0c0.2,0.2,0.2,0.5,0,0.8l-2.3,2.3
		C15.7,6.9,15.3,6.9,15.1,6.7z"/>
	<path class="st0" d="M18.2,3.5c-0.2-0.2-0.5-0.2-0.8,0l-2.3,2.3c-0.2,0.2-0.2,0.5,0,0.8c0.2,0.2,0.5,0.2,0.8,0l2.3-2.3
		C18.4,4.2,18.5,3.8,18.2,3.5L18.2,3.5z"/>
</g>
<path class="st0" d="M6.6,15.2C6.3,15,6,15,5.8,15.2l-2.3,2.3c-0.2,0.2-0.2,0.5,0,0.8c0.2,0.2,0.5,0.2,0.8,0L6.6,16
	C6.7,15.8,6.8,15.4,6.6,15.2L6.6,15.2z"/>
</svg>
